<?xml version="1.0" standalone="no"?>
<!DOCTYPE svg PUBLIC "-//W3C//DTD SVG 20010904//EN"
 "http://www.w3.org/TR/2001/REC-SVG-20010904/DTD/svg10.dtd">
<svg version="1.0" xmlns="http://www.w3.org/2000/svg"
 width="820.000000pt" height="512.000000pt" viewBox="0 0 820.000000 512.000000"
 preserveAspectRatio="xMidYMid meet">

<g transform="translate(0.000000,512.000000) scale(0.100000,-0.100000)"
fill="#000000" stroke="none">
<path d="M3955 4874 c-261 -57 -482 -268 -559 -537 -46 -157 -44 -323 6 -557
75 -352 282 -634 529 -719 323 -112 666 109 819 527 71 194 110 455 91 608
-39 317 -238 567 -526 660 -102 33 -256 41 -360 18z m-183 -510 c249 -86 480
-84 660 5 l78 38 54 -106 c62 -122 96 -224 96 -287 l0 -45 47 53 46 52 -7 -96
c-13 -193 -86 -411 -187 -559 -180 -265 -451 -345 -698 -206 -107 60 -234 211
-296 352 -52 116 -117 376 -100 393 3 3 24 -3 48 -15 l42 -20 0 181 c0 165 2
185 22 227 24 51 60 83 83 73 8 -4 59 -22 112 -40z"/>
<path d="M3361 3125 c-174 -45 -355 -154 -469 -281 -59 -65 -152 -201 -152
-221 0 -10 102 -13 525 -13 366 0 525 3 525 11 0 6 -13 29 -29 52 -102 149
-241 410 -241 454 0 19 -5 23 -32 23 -18 -1 -75 -12 -127 -25z"/>
<path d="M4690 3130 c0 -34 -94 -203 -199 -358 -56 -82 -101 -152 -101 -155 0
-4 243 -7 540 -7 297 0 540 4 540 8 0 17 -72 128 -125 192 -126 153 -317 272
-516 320 -110 26 -139 26 -139 0z"/>
<path d="M3885 2909 c9 -45 47 -103 86 -131 30 -22 31 -25 27 -93 l-3 -70 94
-3 94 -3 -7 70 -7 70 49 48 c33 31 54 63 63 91 7 23 10 44 8 47 -3 2 -25 -3
-49 -12 -68 -24 -205 -29 -273 -9 -31 9 -64 19 -73 23 -14 5 -15 1 -9 -28z"/>
<path d="M2310 2554 c-69 -30 -110 -86 -110 -152 0 -21 81 -419 179 -883 99
-464 182 -864 186 -889 9 -57 71 -122 130 -139 56 -15 2753 -15 2810 0 51 14
110 73 124 124 5 22 51 234 100 470 50 237 131 621 181 854 49 234 90 439 90
457 0 69 -37 124 -105 155 -38 18 -110 19 -1795 18 -1545 0 -1759 -2 -1790
-15z m1860 -979 c35 -36 34 -95 -3 -132 -60 -61 -162 -19 -162 66 0 89 101
130 165 66z"/>
<path d="M2533 430 c-47 -19 -57 -87 -18 -125 l24 -25 1561 0 1561 0 24 25
c30 29 32 74 6 106 l-19 24 -1559 2 c-886 1 -1567 -2 -1580 -7z"/>
</g>
</svg>
