<?xml version="1.0" standalone="no"?>
<!DOCTYPE svg PUBLIC "-//W3C//DTD SVG 20010904//EN"
 "http://www.w3.org/TR/2001/REC-SVG-20010904/DTD/svg10.dtd">
<svg version="1.0" xmlns="http://www.w3.org/2000/svg"
 width="750.000000pt" height="750.000000pt" viewBox="0 0 750.000000 750.000000"
 preserveAspectRatio="xMidYMid meet">

<g transform="translate(0.000000,750.000000) scale(0.100000,-0.100000)"
fill="#000000" stroke="none">
<path d="M1435 7086 c-11 -8 -191 -111 -400 -231 -209 -120 -388 -225 -398
-233 -16 -14 -17 -37 -15 -261 l3 -245 45 -27 c25 -15 55 -28 68 -28 25 -1
819 450 840 477 9 12 12 74 10 257 l-3 240 -55 32 c-60 37 -66 38 -95 19z
m-25 -301 c19 -22 8 -49 -25 -58 -43 -13 -58 -22 -63 -36 -3 -9 7 -11 42 -6
42 7 46 5 57 -19 35 -76 -85 -218 -139 -164 -7 7 -12 20 -12 30 0 20 35 42 51
33 12 -8 59 21 59 36 0 8 -15 9 -45 5 -41 -7 -46 -5 -56 18 -19 40 -2 95 41
138 40 40 69 48 90 23z m-185 -117 c15 -22 14 -24 -6 -41 -12 -10 -29 -15 -37
-12 -17 6 -42 -12 -42 -31 0 -10 11 -12 44 -8 42 6 45 5 52 -20 16 -66 -35
-155 -100 -172 -30 -7 -56 9 -56 37 0 21 35 43 55 36 15 -6 55 19 55 35 0 7
-14 8 -40 4 -35 -5 -41 -3 -56 19 -15 22 -15 32 -4 67 14 49 69 108 98 108 12
0 28 -10 37 -22z m-185 -102 c16 -20 9 -57 -14 -70 -14 -8 -20 -8 -23 2 -7 19
-30 14 -47 -10 -10 -14 -16 -44 -16 -80 0 -52 2 -58 21 -58 13 0 25 11 34 33
7 17 23 38 34 45 19 11 21 10 21 -13 0 -40 -37 -104 -73 -125 -40 -25 -42 -25
-67 0 -27 27 -28 147 -1 206 32 69 100 106 131 70z"/>
<path d="M4389 6734 l-4 -182 -90 54 c-96 57 -132 65 -158 36 -15 -17 -17 -70
-17 -551 l0 -532 -30 16 c-16 8 -35 15 -42 15 -7 0 -150 -79 -316 -175 -167
-96 -308 -175 -313 -175 -5 0 -9 10 -9 23 -1 40 -46 78 -92 76 -20 0 -19 -2 7
-11 36 -13 65 -36 65 -53 0 -8 -36 -19 -97 -30 -54 -9 -108 -19 -120 -22 l-22
-5 18 49 c10 26 22 67 26 90 6 38 9 42 43 48 103 19 182 93 182 171 0 57 -25
78 -85 72 l-45 -6 0 33 c0 18 -9 43 -19 56 l-19 24 -77 -34 -77 -34 -111 9
c-172 13 -225 10 -284 -16 -59 -25 -123 -89 -123 -122 0 -20 -1 -20 -18 -5
-22 20 -65 22 -81 4 -8 -11 -3 -18 24 -33 l35 -18 -26 -27 c-29 -30 -54 -104
-54 -159 0 -58 35 -181 73 -256 42 -83 151 -194 224 -226 56 -26 169 -31 220
-10 36 16 67 76 78 155 7 45 6 47 -16 47 -105 0 -163 178 -72 219 40 18 63 13
100 -24 l35 -35 146 30 c80 16 147 30 149 30 2 0 3 -7 3 -15 0 -8 -14 -22 -30
-30 -17 -9 -28 -20 -25 -25 4 -6 -1 -10 -9 -10 -9 0 -16 -4 -16 -10 0 -5 11
-10 23 -10 16 0 28 -9 35 -25 16 -34 16 -32 -16 -43 -28 -10 -29 -12 -35 -99
-6 -99 -29 -168 -61 -185 -11 -7 -63 -12 -113 -13 l-93 0 -30 -37 -30 -36 68
-34 c37 -19 100 -56 141 -82 l73 -47 67 68 c109 112 207 146 293 100 25 -14
55 -23 65 -21 13 4 22 -4 32 -26 12 -27 11 -33 -4 -51 -10 -10 -27 -19 -37
-19 -10 0 -21 -7 -24 -15 -4 -8 -15 -15 -26 -15 -11 0 -22 -8 -25 -20 -3 -11
-11 -20 -18 -20 -7 0 -18 -7 -25 -15 -10 -12 -9 -15 5 -15 14 0 15 -3 5 -15
-11 -13 -6 -15 32 -15 32 0 50 -6 62 -19 17 -19 17 -20 -3 -33 -12 -7 -21 -16
-21 -19 0 -4 45 -33 100 -64 91 -52 118 -75 89 -75 -6 0 -63 30 -125 66 l-115
65 -78 -15 c-103 -19 -145 -40 -138 -69 2 -12 20 -96 40 -187 20 -91 39 -182
42 -202 l6 -37 37 13 c59 22 242 104 296 134 41 22 56 39 87 97 21 38 36 71
34 74 -3 2 4 11 16 19 11 7 18 19 16 25 -2 7 16 22 41 35 51 26 77 17 63 -21
-4 -12 -11 -35 -15 -52 -7 -28 -7 -29 12 -12 10 9 23 17 28 17 6 0 25 16 44
35 26 27 30 35 16 35 -9 0 -14 5 -11 10 4 6 15 8 25 5 22 -7 38 14 19 26 -10
6 -9 9 6 14 11 4 29 11 40 15 39 17 63 21 69 11 3 -5 0 -11 -7 -14 -24 -9 -8
-63 21 -77 20 -9 23 -13 12 -20 -8 -5 -18 -6 -24 -3 -5 4 -7 -1 -3 -11 4 -10
7 -22 7 -27 0 -5 7 -9 15 -9 8 0 15 -4 15 -10 0 -5 -4 -10 -10 -10 -5 0 -10
-15 -10 -32 -1 -44 -36 -107 -85 -150 -32 -29 -248 -165 -437 -277 -16 -9 -28
-18 -28 -21 1 -3 232 -138 515 -300 l515 -295 0 -787 c0 -701 2 -788 16 -802
25 -25 64 -31 93 -13 l26 16 3 751 2 752 66 -37 c39 -22 75 -35 87 -33 12 3
292 161 621 351 329 191 603 347 607 347 10 0 12 -379 3 -404 -3 -9 -25 -24
-48 -34 -37 -17 -57 -35 -146 -131 -18 -20 -42 -31 -90 -40 -79 -16 -131 -43
-154 -82 -14 -25 -16 -43 -10 -111 l7 -81 -24 5 c-13 3 -31 9 -41 12 -13 6
-19 -3 -32 -46 -8 -29 -22 -62 -29 -72 -13 -18 -14 -12 -13 56 1 60 -3 80 -17
96 -39 42 -310 108 -341 83 -20 -16 -35 -91 -42 -211 l-7 -99 29 -6 c75 -17
142 -39 179 -58 l40 -22 -100 -6 c-130 -8 -155 -19 -155 -71 0 -42 11 -71 41
-104 17 -18 26 -19 72 -13 28 4 73 8 100 8 44 1 46 0 35 -18 -6 -10 -36 -26
-67 -35 -91 -26 -93 -28 -41 -81 25 -25 74 -60 109 -78 53 -26 78 -32 150 -35
47 -2 105 1 129 7 35 10 42 16 42 37 0 58 -34 156 -100 289 -81 162 -174 298
-277 403 -40 40 -73 75 -73 78 0 15 29 -3 77 -48 157 -149 346 -468 384 -650
18 -85 17 -83 39 -63 17 16 26 16 82 6 107 -20 188 8 263 90 40 45 65 95 65
132 0 20 4 23 25 19 14 -2 36 3 50 12 25 16 25 19 25 147 0 115 2 134 20 156
34 43 36 86 6 147 l-26 53 0 424 0 424 74 43 74 42 122 -70 c67 -38 124 -70
126 -70 2 0 4 245 4 545 l0 544 -91 53 c-51 29 -205 119 -343 199 l-251 147
-3 42 c-3 45 10 70 38 70 10 0 60 -25 111 -55 l94 -55 3 307 c1 168 0 308 -3
311 -3 3 -15 0 -27 -6 -13 -6 -17 -11 -10 -11 8 -1 12 -20 12 -63 0 -35 -4
-58 -8 -52 -8 13 -86 59 -962 564 -327 189 -689 398 -805 465 l-210 121 -6 55
c-3 33 -7 -16 -10 -127z m135 -135 c-7 -12 -44 12 -44 29 0 9 6 8 25 -4 14 -9
22 -20 19 -25z m112 -49 c79 -44 126 -79 106 -80 -18 0 -180 93 -186 108 -8
18 0 15 80 -28z m-85 -11 c11 -5 17 -14 14 -20 -7 -11 -45 7 -45 21 0 13 7 13
31 -1z m-256 -63 l90 -52 5 -478 5 -479 25 -18 c14 -11 324 -192 690 -403
l665 -383 3 -117 c1 -64 -1 -116 -5 -115 -4 0 -363 206 -798 457 l-790 457 -3
593 c-2 470 0 592 10 592 7 -1 54 -25 103 -54z m382 -8 c40 -23 73 -46 73 -51
0 -4 -6 -7 -12 -5 -27 7 -138 74 -142 86 -8 19 3 15 81 -30z m-112 2 c7 -11
-6 -13 -29 -4 -9 3 -16 13 -16 20 0 11 4 12 19 4 11 -5 23 -15 26 -20z m-50
-30 c10 -11 15 -20 11 -20 -14 0 -46 21 -46 30 0 16 16 11 35 -10z m164 -31
c61 -35 87 -59 65 -59 -12 0 -133 71 -144 85 -21 26 5 17 79 -26z m9 -63 c53
-32 77 -56 56 -56 -18 0 -194 113 -188 121 3 6 18 2 37 -9 18 -11 60 -36 95
-56z m180 34 c19 -12 32 -28 32 -40 0 -24 -3 -25 -38 -3 -31 20 -42 33 -42 51
0 17 10 15 48 -8z m-313 -20 c10 -11 15 -20 11 -20 -14 0 -46 21 -46 30 0 16
16 11 35 -10z m-38 -33 c7 -5 10 -13 7 -18 -7 -12 -44 13 -44 29 0 13 11 10
37 -11z m231 -86 c3 -9 -23 1 -64 24 -83 46 -95 55 -89 66 7 11 147 -72 153
-90z m120 49 c19 -12 32 -28 32 -40 0 -24 -3 -25 -38 -3 -31 20 -42 33 -42 51
0 17 10 15 48 -8z m-220 -36 c80 -45 116 -74 93 -74 -15 0 -168 89 -182 106
-20 25 6 15 89 -32z m357 36 c3 -6 -1 -7 -9 -4 -18 7 -21 14 -7 14 6 0 13 -4
16 -10z m113 -65 c45 -26 82 -49 82 -51 0 -3 -3 -3 -7 -1 -116 66 -173 100
-173 103 0 3 3 3 8 1 4 -2 44 -26 90 -52z m-220 -65 c4 -25 -2 -25 -44 1 -32
20 -42 38 -27 52 11 11 68 -31 71 -53z m194 -2 c59 -34 108 -68 108 -76 0 -11
-7 -9 -32 6 -18 11 -70 41 -115 67 -72 41 -100 65 -76 65 4 0 56 -28 115 -62z
m-567 -18 c3 -6 0 -10 -7 -10 -15 0 -38 19 -38 32 0 10 36 -8 45 -22z m798
-33 c37 -21 67 -41 67 -44 0 -2 -3 -2 -7 0 -115 65 -173 100 -173 103 0 6 28
-9 113 -59z m-425 -37 c4 -25 -4 -25 -45 0 -31 19 -41 39 -26 53 11 11 68 -31
71 -53z m140 30 c45 -26 67 -50 46 -50 -14 0 -114 62 -114 71 0 14 11 11 68
-21z m-377 -32 c81 -47 105 -68 80 -68 -13 0 -179 99 -186 110 -13 21 20 8
106 -42z m-96 -8 c7 -11 -6 -13 -29 -4 -9 3 -16 13 -16 20 0 11 4 12 19 4 11
-5 23 -15 26 -20z m732 -20 c54 -30 87 -60 65 -60 -16 1 -136 76 -140 89 -5
16 -4 16 75 -29z m-616 -40 c60 -35 85 -60 62 -60 -11 0 -141 79 -148 90 -12
20 18 9 86 -30z m219 -21 c0 -24 -7 -24 -47 1 -31 18 -41 39 -27 53 11 11 74
-35 74 -54z m338 5 c105 -60 137 -84 112 -84 -21 1 -213 115 -218 129 -6 18 4
14 106 -45z m611 -179 c219 -126 398 -231 396 -233 -3 -3 -804 455 -815 466
-16 16 58 -25 419 -233z m-1284 195 c3 -6 0 -10 -7 -10 -15 0 -38 19 -38 32 0
10 36 -8 45 -22z m-49 -24 c10 -8 16 -17 12 -21 -8 -8 -48 13 -48 25 0 14 13
12 36 -4z m160 -32 c63 -35 81 -50 71 -61 -6 -5 -144 74 -153 88 -11 18 20 8
82 -27z m-14 -51 c78 -45 100 -63 77 -63 -19 0 -189 100 -189 112 0 14 22 5
112 -49z m376 27 c44 -26 67 -50 46 -50 -14 0 -104 56 -109 67 -7 19 5 16 63
-17z m-168 5 c27 -14 43 -55 23 -55 -19 0 -73 41 -73 55 0 19 13 19 50 0z
m-315 -31 c9 -9 14 -18 11 -21 -7 -7 -46 16 -46 27 0 15 17 12 35 -6z m1274
-251 c394 -227 451 -263 422 -263 -23 0 -871 494 -871 508 0 16 -42 39 449
-245z m-1164 192 c65 -37 98 -65 75 -65 -17 0 -150 81 -150 91 0 14 8 11 75
-26z m-101 -16 c-7 -12 -44 12 -44 29 0 9 6 8 25 -4 14 -9 22 -20 19 -25z
m474 11 c45 -26 67 -50 46 -50 -14 0 -114 62 -114 71 0 14 11 11 68 -21z m175
-11 c87 -51 98 -59 92 -70 -7 -10 -167 81 -173 99 -6 19 4 15 81 -29z m-342
14 c19 -11 29 -25 29 -41 0 -25 -3 -24 -52 10 -28 19 -38 48 -17 48 6 0 24 -8
40 -17z m-192 -64 c62 -36 87 -59 64 -59 -12 0 -130 70 -143 85 -21 25 4 17
79 -26z m-114 1 c7 -11 -6 -13 -29 -4 -9 3 -16 13 -16 20 0 11 4 12 19 4 11
-5 23 -15 26 -20z m648 -41 c87 -51 98 -59 92 -70 -7 -10 -167 81 -173 99 -6
19 4 15 81 -29z m-698 15 c9 -9 14 -18 11 -21 -7 -7 -46 16 -46 27 0 15 17 12
35 -6z m356 -1 c19 -11 29 -25 29 -41 0 -25 -3 -24 -52 10 -28 19 -38 48 -17
48 6 0 24 -8 40 -17z m-190 -33 c59 -35 85 -60 63 -60 -10 0 -143 80 -149 90
-12 20 18 9 86 -30z m-30 -41 c85 -48 106 -65 96 -75 -7 -7 -197 106 -197 117
0 15 9 11 101 -42z m-135 17 c10 -8 16 -17 12 -21 -8 -8 -48 13 -48 25 0 14
13 12 36 -4z m353 -33 c20 -12 31 -26 31 -41 0 -20 -2 -21 -22 -11 -34 17 -58
40 -58 56 0 18 12 16 49 -4z m-207 -50 c78 -45 100 -63 77 -63 -19 0 -178 94
-184 109 -7 18 13 10 107 -46z m-107 1 c9 -9 14 -18 11 -21 -7 -7 -46 16 -46
27 0 15 17 12 35 -6z m1126 -235 c373 -214 443 -259 410 -259 -5 0 -195 107
-422 238 -358 207 -445 262 -414 262 4 0 196 -108 426 -241z m-646 190 c30
-17 55 -38 55 -46 0 -15 -13 -9 -97 45 -21 13 -31 32 -18 32 3 0 30 -14 60
-31z m-370 -14 c65 -37 98 -65 75 -65 -17 0 -150 81 -150 91 0 14 8 11 75 -26z
m203 15 c19 -12 32 -28 32 -40 0 -20 -1 -20 -32 -4 -35 18 -48 31 -48 52 0 17
10 15 48 -8z m-304 -31 c-7 -12 -44 12 -44 29 0 9 6 8 25 -4 14 -9 22 -20 19
-25z m-39 -29 c3 -6 0 -10 -7 -10 -15 0 -38 19 -38 32 0 10 36 -8 45 -22z
m154 -21 c62 -36 87 -59 64 -59 -12 0 -130 70 -143 85 -21 25 4 17 79 -26z
m356 -10 c30 -17 55 -38 55 -46 0 -15 -13 -9 -97 45 -21 13 -31 32 -18 32 3 0
30 -14 60 -31z m606 -260 c277 -160 511 -297 519 -305 42 -41 -52 9 -484 258
-541 312 -546 315 -546 328 0 6 2 10 3 10 2 0 231 -131 508 -291z m-773 261
c19 -12 32 -28 32 -40 0 -24 -3 -25 -38 -3 -31 20 -42 33 -42 51 0 17 10 15
48 -8z m-207 -41 c76 -43 107 -69 83 -69 -11 0 -183 101 -189 111 -13 20 22 7
106 -42z m1126 -211 c202 -117 371 -217 375 -222 4 -6 4 -12 -1 -14 -8 -3
-710 397 -738 420 -12 10 -18 28 -9 28 2 0 170 -95 373 -212z m-752 161 c30
-17 55 -38 55 -46 0 -15 -13 -9 -97 45 -21 13 -31 32 -18 32 3 0 30 -14 60
-31z m606 -260 c277 -160 511 -297 519 -305 42 -41 -52 9 -484 258 -541 312
-546 315 -546 328 0 6 2 10 3 10 2 0 231 -131 508 -291z m-773 261 c19 -12 32
-28 32 -40 0 -24 -3 -25 -38 -3 -31 20 -42 33 -42 51 0 17 10 15 48 -8z m797
-365 c264 -152 487 -283 495 -291 43 -42 -53 9 -484 258 -538 310 -546 315
-546 328 0 14 -10 19 535 -295z m-671 -203 c843 -487 849 -491 878 -476 l28
15 0 -89 c0 -97 -14 -132 -53 -132 -13 0 -159 79 -326 175 -167 96 -305 175
-307 175 -2 0 -4 -10 -4 -22 0 -36 -10 -44 -129 -113 -123 -69 -177 -85 -235
-65 -53 17 -277 148 -303 177 -27 29 -30 76 -5 101 9 9 59 42 110 72 90 53
113 79 99 112 -3 7 -139 90 -303 185 -165 94 -305 178 -311 184 -9 9 -13 45
-13 107 0 71 3 93 13 89 6 -3 394 -226 861 -495z m278 334 c65 -37 120 -71
123 -76 6 -10 -235 128 -250 143 -13 13 -15 14 127 -67z m884 -50 c22 -17 11
-35 -13 -20 -19 12 -29 34 -16 34 5 0 18 -6 29 -14z m-682 -67 c20 -12 36 -23
36 -25 0 -5 -44 18 -70 35 -27 19 -2 11 34 -10z m179 -103 c64 -38 117 -70
117 -73 0 -2 -3 -2 -7 0 -5 2 -61 35 -125 72 -65 36 -118 69 -118 71 0 6 -10
11 133 -70z m687 -131 c122 -70 136 -80 123 -88 -8 -5 -224 120 -246 142 -25
25 15 7 123 -54z m-312 -85 c72 -41 129 -76 127 -78 -4 -4 -355 196 -370 211
-11 11 36 -15 243 -133z m457 65 c11 -9 2 -7 -20 6 -22 12 -44 26 -50 32 -16
15 48 -20 70 -38z m-219 -11 c24 -14 44 -30 44 -35 0 -13 -2 -12 -54 17 -25
14 -46 30 -46 35 0 14 7 11 56 -17z m339 -59 c11 -9 2 -7 -20 6 -22 12 -44 26
-50 32 -16 15 48 -20 70 -38z m-334 -17 c35 -19 51 -38 32 -38 -9 0 -93 50
-93 55 0 11 24 4 61 -17z m204 -43 c98 -56 134 -85 108 -85 -10 0 -223 126
-237 141 -28 26 31 1 129 -56z m71 33 c53 -32 67 -48 42 -48 -19 0 -108 58
-108 70 0 15 7 13 66 -22z m229 -71 c16 -15 -68 29 -90 48 -11 9 3 4 30 -11
28 -15 55 -32 60 -37z m-2976 32 c-7 -4 -17 -5 -22 -2 -5 3 -3 9 4 14 7 4 17
5 22 2 5 -3 3 -9 -4 -14z m2465 -22 c22 -12 42 -28 44 -36 3 -10 -8 -7 -34 9
-77 46 -86 70 -10 27z m144 -8 c32 -17 123 -69 205 -116 131 -76 167 -103 138
-103 -8 0 -162 88 -383 219 -25 15 -37 31 -22 31 3 0 31 -14 62 -31z m-2559 0
c-7 -4 -17 -5 -22 -2 -5 3 -3 9 4 14 7 4 17 5 22 2 5 -3 3 -9 -4 -14z m-98
-22 c-13 -13 -26 -3 -16 12 3 6 11 8 17 5 6 -4 6 -10 -1 -17z m148 -8 c-7 -4
-17 -5 -22 -2 -5 3 -3 9 4 14 7 4 17 5 22 2 5 -3 3 -9 -4 -14z m2126 -59 c132
-76 145 -86 145 -117 0 -12 -2 -23 -4 -23 -2 0 -63 34 -135 76 -121 70 -131
78 -131 106 0 16 3 27 8 25 4 -2 57 -33 117 -67z m-2223 38 c-6 -6 -16 -7 -22
-3 -9 6 -9 9 1 16 17 10 34 0 21 -13z m153 2 c3 -5 -3 -10 -15 -10 -12 0 -18
5 -15 10 3 6 10 10 15 10 5 0 12 -4 15 -10z m2349 -41 c5 -5 7 -11 4 -15 -8
-8 -88 44 -88 57 0 9 59 -20 84 -42z m160 -14 c63 -36 118 -70 122 -76 15 -25
-9 -16 -87 30 -46 28 -101 59 -121 71 -21 11 -38 25 -38 30 0 6 2 10 4 10 2 0
56 -29 120 -65z m-2749 45 c-3 -5 -10 -10 -16 -10 -5 0 -9 5 -9 10 0 6 7 10
16 10 8 0 12 -4 9 -10z m2956 -17 c45 -26 71 -53 50 -53 -14 0 -98 49 -111 65
-20 24 5 19 61 -12z m-2816 7 c3 -6 -4 -10 -17 -10 -18 0 -20 2 -8 10 19 12
18 12 25 0z m-90 -20 c-3 -5 -10 -10 -16 -10 -5 0 -9 5 -9 10 0 6 7 10 16 10
8 0 12 -4 9 -10z m260 -10 c-3 -5 -13 -6 -21 -3 -12 4 -13 8 -3 14 15 9 32 2
24 -11z m-355 0 c0 -5 -7 -10 -16 -10 -8 0 -12 5 -9 10 3 6 10 10 16 10 5 0 9
-4 9 -10z m235 0 c3 -6 -4 -10 -17 -10 -18 0 -20 2 -8 10 19 12 18 12 25 0z
m-90 -20 c-3 -5 -10 -10 -16 -10 -5 0 -9 5 -9 10 0 6 7 10 16 10 8 0 12 -4 9
-10z m260 -10 c-3 -5 -13 -6 -21 -3 -12 4 -13 8 -3 14 15 9 32 2 24 -11z
m-350 0 c-3 -5 -13 -10 -21 -10 -8 0 -12 5 -9 10 3 6 13 10 21 10 8 0 12 -4 9
-10z m230 0 c3 -6 -4 -10 -17 -10 -18 0 -20 2 -8 10 19 12 18 12 25 0z m2495
-40 c87 -50 108 -66 97 -77 -6 -5 -169 89 -197 114 -31 28 13 12 100 -37z
m-2580 20 c-19 -13 -30 -13 -30 0 0 6 10 10 23 10 18 0 19 -2 7 -10z m260 2
c0 -15 -11 -21 -27 -15 -12 5 -12 7 -1 14 17 11 28 11 28 1z m-355 -12 c-3 -5
-13 -10 -21 -10 -8 0 -12 5 -9 10 3 6 13 10 21 10 8 0 12 -4 9 -10z m235 0 c0
-5 -10 -10 -22 -10 -19 0 -20 2 -8 10 19 13 30 13 30 0z m-90 -20 c-19 -13
-30 -13 -30 0 0 6 10 10 23 10 18 0 19 -2 7 -10z m260 0 c0 -5 -7 -10 -16 -10
-8 0 -12 5 -9 10 3 6 10 10 16 10 5 0 9 -4 9 -10z m-355 -10 c-3 -5 -10 -10
-16 -10 -5 0 -9 5 -9 10 0 6 7 10 16 10 8 0 12 -4 9 -10z m235 0 c0 -5 -10
-10 -22 -10 -19 0 -20 2 -8 10 19 13 30 13 30 0z m-95 -22 c-19 -11 -30 -5
-21 11 4 6 14 7 22 4 15 -5 14 -7 -1 -15z m2701 -9 c56 -32 70 -44 57 -52 -11
-7 -115 55 -121 71 -6 18 5 15 64 -19z m-2924 9 c-9 -9 -15 -9 -24 0 -9 9 -7
12 12 12 19 0 21 -3 12 -12z m129 -11 c-13 -13 -26 -3 -16 12 3 6 11 8 17 5 6
-4 6 -10 -1 -17z m239 3 c0 -5 -10 -10 -22 -10 -19 0 -20 2 -8 10 19 13 30 13
30 0z m-321 -21 c-7 -4 -17 -5 -22 -2 -5 3 -3 9 4 14 7 4 17 5 22 2 5 -3 3 -9
-4 -14z m230 0 c-15 -9 -32 -2 -24 11 3 5 13 6 21 3 12 -4 13 -8 3 -14z m241
17 c0 -9 -30 -14 -35 -6 -4 6 3 10 14 10 12 0 21 -2 21 -4z m-338 -28 c-6 -6
-16 -7 -22 -3 -9 6 -9 9 1 16 17 10 34 0 21 -13z m238 2 c0 -5 -7 -10 -16 -10
-8 0 -12 5 -9 10 3 6 10 10 16 10 5 0 9 -4 9 -10z m2404 -58 c107 -61 146 -92
118 -92 -16 0 -246 137 -250 149 -7 20 11 12 132 -57z m-2725 37 c-7 -4 -17
-5 -22 -2 -5 3 -3 9 4 14 7 4 17 5 22 2 5 -3 3 -9 -4 -14z m231 13 c0 -13 -12
-22 -22 -16 -10 6 -1 24 13 24 5 0 9 -4 9 -8z m-98 -24 c-6 -6 -16 -7 -22 -3
-9 6 -9 9 1 16 17 10 34 0 21 -13z m378 2 c0 -5 -7 -10 -16 -10 -8 0 -12 5 -9
10 3 6 10 10 16 10 5 0 9 -4 9 -10z m-461 -21 c-7 -4 -17 -5 -22 -2 -5 3 -3 9
4 14 7 4 17 5 22 2 5 -3 3 -9 -4 -14z m231 11 c0 -5 -7 -10 -16 -10 -8 0 -12
5 -9 10 3 6 10 10 16 10 5 0 9 -4 9 -10z m-95 -20 c-3 -5 -13 -6 -21 -3 -12 4
-13 8 -3 14 15 9 32 2 24 -11z m375 2 c0 -13 -12 -22 -22 -16 -10 6 -1 24 13
24 5 0 9 -4 9 -8z m-461 -23 c-7 -4 -17 -5 -22 -2 -5 3 -3 9 4 14 7 4 17 5 22
2 5 -3 3 -9 -4 -14z m526 -19 c-3 -5 -10 -10 -16 -10 -5 0 -9 5 -9 10 0 6 7
10 16 10 8 0 12 -4 9 -10z m-340 -10 c3 -6 -4 -10 -17 -10 -18 0 -20 2 -8 10
19 12 18 12 25 0z m-210 -6 c12 -5 14 -9 4 -14 -15 -10 -41 -1 -33 11 6 11 8
11 29 3z m600 -14 c-3 -5 -10 -10 -16 -10 -5 0 -9 5 -9 10 0 6 7 10 16 10 8 0
12 -4 9 -10z m-120 -10 c-3 -5 -13 -10 -21 -10 -8 0 -12 5 -9 10 3 6 13 10 21
10 8 0 12 -4 9 -10z m2293 -62 c114 -66 140 -84 130 -94 -10 -9 -248 129 -248
144 0 6 2 12 5 12 3 0 54 -28 113 -62z m132 -16 c0 -16 1 -16 -68 22 -28 16
-52 36 -52 43 0 10 17 5 60 -19 33 -18 60 -39 60 -46z m-2255 58 c-3 -5 -10
-10 -16 -10 -5 0 -9 5 -9 10 0 6 7 10 16 10 8 0 12 -4 9 -10z m-120 -10 c-3
-5 -10 -10 -16 -10 -5 0 -9 5 -9 10 0 6 7 10 16 10 8 0 12 -4 9 -10z m47 -32
c-6 -6 -16 -7 -22 -3 -9 6 -9 9 1 16 17 10 34 0 21 -13z m-102 2 c0 -5 -9 -10
-21 -10 -11 0 -17 5 -14 10 3 6 13 10 21 10 8 0 14 -4 14 -10z m50 -30 c0 -5
-7 -10 -15 -10 -8 0 -15 5 -15 10 0 6 7 10 15 10 8 0 15 -4 15 -10z m120 0 c0
-5 -10 -10 -22 -10 -19 0 -20 2 -8 10 19 13 30 13 30 0z m-61 -41 c-15 -9 -32
-2 -24 11 3 5 13 6 21 3 12 -4 13 -8 3 -14z m106 11 c-3 -5 -11 -10 -16 -10
-6 0 -7 5 -4 10 3 6 11 10 16 10 6 0 7 -4 4 -10z m-55 -30 c0 -5 -7 -10 -16
-10 -8 0 -12 5 -9 10 3 6 10 10 16 10 5 0 9 -4 9 -10z m110 0 c0 -5 -7 -10
-15 -10 -8 0 -15 5 -15 10 0 6 7 10 15 10 8 0 15 -4 15 -10z m-215 -10 c-3 -5
-13 -10 -21 -10 -8 0 -14 5 -14 10 0 6 9 10 21 10 11 0 17 -4 14 -10z m155
-18 c0 -15 -11 -21 -27 -15 -12 5 -12 7 -1 14 17 11 28 11 28 1z m105 -2 c-3
-5 -10 -10 -16 -10 -5 0 -9 5 -9 10 0 6 7 10 16 10 8 0 12 -4 9 -10z m-320
-10 c-3 -5 -13 -10 -21 -10 -8 0 -12 5 -9 10 3 6 13 10 21 10 8 0 12 -4 9 -10z
m107 -2 c-9 -9 -15 -9 -24 0 -9 9 -7 12 12 12 19 0 21 -3 12 -12z m47 -29 c-7
-4 -17 -5 -22 -2 -5 3 -3 9 4 14 7 4 17 5 22 2 5 -3 3 -9 -4 -14z m111 11 c0
-12 -75 -51 -84 -43 -3 3 11 17 32 29 41 26 52 29 52 14z m2155 -8 c-3 -3 -11
0 -18 7 -9 10 -8 11 6 5 10 -3 15 -9 12 -12z m-2452 -11 c29 -15 36 -31 12
-31 -24 0 -79 37 -63 43 15 6 13 6 51 -12z m82 9 c-3 -5 -13 -10 -21 -10 -8 0
-12 5 -9 10 3 6 13 10 21 10 8 0 12 -4 9 -10z m50 -30 c-3 -5 -10 -10 -16 -10
-5 0 -9 5 -9 10 0 6 7 10 16 10 8 0 12 -4 9 -10z m-55 -30 c0 -5 -10 -10 -22
-10 -19 0 -20 2 -8 10 19 13 30 13 30 0z m110 6 c0 -10 -71 -47 -83 -43 -7 2
3 13 23 25 32 20 60 28 60 18z m2020 -22 c0 -2 -9 0 -20 6 -11 6 -20 13 -20
16 0 2 9 0 20 -6 11 -6 20 -13 20 -16z m208 -31 c28 -15 52 -33 52 -40 0 -7
-2 -13 -4 -13 -10 0 -96 53 -106 65 -18 22 -1 18 58 -12z m27 -100 c11 -7 16
-13 11 -13 -11 0 -146 80 -146 86 0 5 96 -46 135 -73z m-505 -730 c0 -3 -17
-29 -38 -57 -53 -71 -106 -160 -141 -239 l-30 -67 37 19 c54 27 223 84 230 77
11 -11 -12 -23 -98 -51 -47 -15 -106 -38 -132 -51 -42 -21 -49 -30 -64 -79
-13 -40 -20 -51 -26 -41 -8 14 19 111 44 158 9 19 -16 79 -58 135 -23 31 -31
53 -18 53 10 0 31 -28 65 -87 l30 -52 37 69 c66 124 162 250 162 213z"/>
<path d="M4957 4744 c-9 -9 15 -54 29 -54 19 0 23 12 13 38 -8 21 -29 29 -42
16z"/>
<path d="M2456 6704 c-10 -26 -7 -691 3 -717 12 -31 69 -75 107 -83 l29 -6 -2
378 -2 378 -58 33 c-67 38 -69 38 -77 17z"/>
<path d="M1045 5923 c-226 -130 -413 -241 -417 -247 -4 -6 -8 -117 -8 -246 0
-129 4 -240 8 -246 10 -15 96 -64 113 -64 18 0 831 467 841 483 4 7 7 120 5
252 l-2 240 -50 32 c-27 18 -57 33 -65 33 -8 0 -199 -107 -425 -237z m405
-123 c0 -55 3 -100 8 -100 4 0 22 9 40 20 42 26 44 26 40 -12 -2 -27 -12 -37
-58 -65 -30 -18 -61 -33 -67 -33 -10 0 -13 34 -13 135 0 117 2 135 18 144 9 6
20 11 25 11 4 0 7 -45 7 -100z m-90 -89 c0 -114 -2 -130 -19 -145 -27 -25 -41
-12 -42 37 0 38 -1 40 -10 17 -15 -37 -32 -43 -51 -17 -17 21 -18 20 -18 -45
0 -56 -3 -69 -19 -78 -11 -5 -22 -10 -25 -10 -3 0 -6 59 -6 132 0 108 3 135
17 150 23 26 30 23 54 -24 l22 -43 23 69 c22 64 49 100 66 90 5 -3 8 -63 8
-133z m-220 -21 c0 -23 -6 -33 -25 -42 -24 -11 -25 -14 -25 -119 0 -101 -2
-109 -22 -124 l-23 -15 -5 104 c-4 91 -7 104 -20 96 -25 -16 -31 -11 -28 22 3
28 12 37 68 70 36 21 68 38 73 38 4 0 7 -14 7 -30z m-190 -213 c0 -133 -6
-157 -37 -157 -9 0 -13 15 -13 45 0 47 -6 53 -33 33 -11 -9 -17 -31 -19 -67
-2 -43 -8 -57 -25 -69 l-23 -14 0 139 c0 139 5 163 37 163 9 0 13 -15 13 -45
0 -49 1 -50 31 -35 15 9 19 22 19 65 0 51 13 73 43 75 4 0 7 -60 7 -133z"/>
<path d="M2800 6012 c-21 -17 -21 -18 -3 -38 10 -12 35 -32 56 -44 l39 -23
-31 62 c-17 33 -33 61 -35 61 -2 0 -14 -8 -26 -18z"/>
<path d="M6184 5845 c-8 -19 5 -46 24 -53 17 -5 15 43 -3 58 -12 10 -16 9 -21
-5z"/>
<path d="M6240 5807 c0 -27 12 -47 27 -47 21 0 13 54 -9 58 -11 2 -18 -3 -18
-11z"/>
<path d="M6303 5774 c-7 -18 9 -51 23 -46 14 3 11 55 -3 59 -7 3 -16 -3 -20
-13z"/>
<path d="M1040 4984 c-222 -129 -408 -240 -412 -248 -5 -8 -7 -122 -6 -253 l3
-238 50 -32 c27 -18 56 -33 63 -33 15 0 807 453 835 478 15 14 17 39 17 253 0
205 -2 240 -16 254 -23 22 -90 55 -111 54 -10 0 -200 -106 -423 -235z m320
-155 c0 -28 2 -31 25 -25 22 6 25 3 25 -22 0 -20 -7 -33 -25 -42 -20 -11 -25
-21 -25 -50 0 -38 -21 -67 -40 -55 -5 3 -10 17 -10 31 0 21 -4 24 -20 19 -17
-5 -20 -2 -20 24 0 20 7 34 20 41 14 7 20 21 20 45 0 32 21 65 41 65 5 0 9
-14 9 -31z m-170 -99 c0 -27 2 -30 25 -24 22 5 25 3 25 -20 0 -16 -9 -31 -25
-42 -20 -13 -25 -25 -25 -55 0 -28 -5 -41 -19 -49 -29 -15 -31 -13 -31 21 0
26 -3 29 -20 24 -17 -5 -20 -2 -20 24 0 20 7 34 20 41 15 8 20 21 20 50 0 27
6 42 18 49 27 16 32 13 32 -19z m-124 -57 c5 -19 2 -30 -11 -40 -22 -16 -35
-17 -35 -3 0 18 -39 11 -50 -9 -5 -11 -10 -47 -10 -81 0 -53 2 -61 18 -58 9 2
24 17 32 35 17 36 60 63 60 37 0 -56 -68 -144 -112 -144 -38 0 -48 24 -48 113
0 58 5 83 23 118 41 78 117 96 133 32z"/>
<path d="M6722 4889 c1 -12 9 -24 16 -27 9 -3 13 3 10 19 -1 12 -9 24 -16 27
-9 3 -13 -3 -10 -19z"/>
<path d="M6772 4859 c1 -12 9 -24 16 -27 9 -3 13 3 10 19 -1 12 -9 24 -16 27
-9 3 -13 -3 -10 -19z"/>
<path d="M6882 4871 c-10 -6 -12 -131 -10 -594 2 -468 6 -585 16 -578 10 6 12
131 10 594 -2 468 -6 585 -16 578z"/>
<path d="M6817 4844 c-8 -9 11 -44 24 -44 6 0 9 10 7 22 -3 22 -19 34 -31 22z"/>
<path d="M1385 3992 c-60 -38 -59 -47 3 -47 48 -1 73 -9 152 -49 240 -121 371
-242 476 -441 61 -114 81 -167 180 -478 100 -317 147 -432 222 -545 55 -84
104 -129 176 -162 34 -16 36 -19 17 -22 -19 -2 28 -56 294 -338 435 -460 407
-433 428 -418 15 12 2 50 -158 456 -96 244 -175 445 -175 447 0 2 27 22 59 45
l60 40 11 -35 c6 -19 20 -40 30 -45 44 -24 150 -3 216 42 l31 21 -25 100 c-24
96 -25 101 -8 146 9 25 16 57 16 71 0 15 4 20 9 15 12 -13 172 -431 169 -442
-1 -4 6 -22 15 -40 9 -18 17 -43 17 -58 0 -38 -27 -31 -34 9 -7 37 -40 85 -51
74 -4 -3 -2 -15 4 -26 6 -12 11 -37 11 -57 0 -53 -21 -39 -36 23 -13 61 -11
57 -46 66 -23 5 -28 3 -28 -13 0 -51 -169 -108 -207 -70 -22 22 -33 -3 -33
-76 0 -113 16 -172 50 -190 46 -24 114 -18 224 19 79 28 194 56 224 56 3 0 -4
27 -15 56 -3 7 16 14 50 18 54 7 167 54 199 82 15 14 14 24 -14 127 -89 337
-243 847 -280 927 -53 119 -113 160 -230 160 -64 0 -93 -4 -185 -25 -19 -5
-24 2 -40 52 -32 100 -98 143 -222 143 l-51 0 -1 48 -1 47 -23 -50 c-28 -63
-52 -173 -60 -290 -8 -106 -28 -147 -103 -217 -89 -83 -208 -129 -344 -131
l-81 -2 -61 185 c-72 214 -104 286 -175 397 -94 147 -268 289 -465 379 -76 35
-152 41 -191 16z m1702 -1942 c146 -369 173 -440 169 -440 -8 0 -595 626 -596
635 -1 6 23 16 52 23 29 7 94 33 143 57 50 24 94 42 99 41 5 -1 65 -143 133
-316z"/>
<path d="M1869 2473 c-5 -15 -94 -239 -196 -497 -188 -475 -191 -485 -147
-486 7 0 38 28 70 63 31 34 204 217 382 405 248 262 322 346 311 353 -8 5 -19
8 -25 6 -6 -1 -161 -161 -344 -355 -183 -193 -335 -351 -337 -349 -2 2 69 187
157 410 88 223 164 417 170 431 8 21 6 27 -10 36 -17 9 -22 7 -31 -17z"/>
<path d="M2400 1590 c0 -679 0 -688 20 -693 20 -5 20 0 20 683 0 679 0 688
-20 693 -20 5 -20 0 -20 -683z"/>
<path d="M4265 2125 c-5 -2 -32 -6 -59 -10 l-48 -7 21 -22 c22 -24 47 -84 38
-93 -12 -12 -35 7 -41 34 -9 33 -43 73 -64 73 -12 0 -12 -4 3 -20 19 -21 27
-97 10 -102 -5 -2 -15 17 -22 41 -12 43 -38 81 -54 81 -4 0 -1 -16 7 -36 8
-20 14 -48 12 -63 -4 -34 -32 -35 -36 -1 -6 60 -23 100 -42 100 -10 0 -22 5
-25 10 -9 15 -35 12 -35 -5 0 -8 -13 -24 -30 -36 -16 -12 -32 -35 -36 -52 -6
-29 -7 -29 -65 -25 -43 3 -65 10 -83 27 -13 12 -27 18 -30 13 -7 -12 10 -240
19 -265 4 -10 22 -25 39 -34 48 -26 128 -20 232 17 49 17 130 37 180 45 110
17 189 45 240 86 57 45 74 76 74 134 0 53 -17 84 -57 104 -20 10 -124 14 -148
6z"/>
</g>
</svg>
