<?xml version="1.0" standalone="no"?>
<!DOCTYPE svg PUBLIC "-//W3C//DTD SVG 20010904//EN"
 "http://www.w3.org/TR/2001/REC-SVG-20010904/DTD/svg10.dtd">
<svg version="1.0" xmlns="http://www.w3.org/2000/svg"
 width="00.000000pt" height="17.000000pt" viewBox="0 0 1000.000000 577.000000"
 preserveAspectRatio="xMidYMid meet">

<g transform="translate(0.000000,577.000000) scale(0.100000,-0.100000)"
fill="#000000" stroke="none">
<path d="M660 5437 c-88 -30 -145 -65 -207 -127 -160 -162 -188 -427 -64 -618
17 -26 988 -1004 2158 -2173 2010 -2008 2132 -2129 2194 -2158 94 -44 153 -54
292 -49 137 5 201 23 286 80 67 44 4262 4237 4301 4298 127 197 98 451 -70
621 -172 174 -431 198 -637 59 -35 -24 -815 -796 -1983 -1964 l-1925 -1926
-1945 1943 c-2091 2089 -1975 1979 -2119 2021 -80 23 -201 20 -281 -7z"/>
</g>
</svg>
